<mxfile host="app.diagrams.net" modified="2021-05-20T15:43:10.375Z" agent="5.0 (Windows)" etag="tcTrT06mX-c-nxBCTI4i" version="14.6.13" type="github">
  <diagram name="Page-1" id="edf60f1a-56cd-e834-aa8a-f176f3a09ee4">
    <mxGraphModel dx="1002" dy="683" grid="1" gridSize="10" guides="1" tooltips="1" connect="1" arrows="1" fold="1" page="1" pageScale="1" pageWidth="1100" pageHeight="850" background="#ffffff" math="0" shadow="0">
      <root>
        <mxCell id="0" />
        <mxCell id="1" parent="0" />
        <mxCell id="JbQQHDA_vIymADXAR3bc-9" style="edgeStyle=orthogonalEdgeStyle;rounded=0;orthogonalLoop=1;jettySize=auto;html=1;exitX=0.5;exitY=1;exitDx=0;exitDy=0;" edge="1" parent="1" source="JbQQHDA_vIymADXAR3bc-2" target="JbQQHDA_vIymADXAR3bc-8">
          <mxGeometry relative="1" as="geometry" />
        </mxCell>
        <mxCell id="JbQQHDA_vIymADXAR3bc-2" value="input query" style="shape=parallelogram;html=1;strokeWidth=1;perimeter=parallelogramPerimeter;whiteSpace=wrap;rounded=0;size=0.23;shadow=1;fontFamily=Verdana;fontSize=8;" vertex="1" parent="1">
          <mxGeometry x="87.5" y="20" width="100" height="30" as="geometry" />
        </mxCell>
        <mxCell id="JbQQHDA_vIymADXAR3bc-3" value="&lt;div&gt;at root: query=&#39;&#39;&lt;/div&gt;&lt;div&gt;2nd level and further: query=query&lt;br&gt;&lt;/div&gt;" style="strokeWidth=2;html=1;shape=mxgraph.flowchart.annotation_2;align=left;labelPosition=right;pointerEvents=1;" vertex="1" parent="1">
          <mxGeometry x="185" y="10" width="50" height="40" as="geometry" />
        </mxCell>
        <mxCell id="JbQQHDA_vIymADXAR3bc-11" style="edgeStyle=orthogonalEdgeStyle;rounded=0;orthogonalLoop=1;jettySize=auto;html=1;exitX=1;exitY=0.5;exitDx=0;exitDy=0;entryX=0;entryY=0.5;entryDx=0;entryDy=0;entryPerimeter=0;dashed=1;" edge="1" parent="1" source="JbQQHDA_vIymADXAR3bc-8" target="JbQQHDA_vIymADXAR3bc-10">
          <mxGeometry relative="1" as="geometry" />
        </mxCell>
        <mxCell id="JbQQHDA_vIymADXAR3bc-13" style="edgeStyle=orthogonalEdgeStyle;rounded=0;orthogonalLoop=1;jettySize=auto;html=1;exitX=0.5;exitY=1;exitDx=0;exitDy=0;entryX=0.5;entryY=0;entryDx=0;entryDy=0;" edge="1" parent="1" source="JbQQHDA_vIymADXAR3bc-8" target="JbQQHDA_vIymADXAR3bc-12">
          <mxGeometry relative="1" as="geometry" />
        </mxCell>
        <mxCell id="JbQQHDA_vIymADXAR3bc-8" value="create CC table" style="rounded=1;whiteSpace=wrap;html=1;shadow=1;labelBackgroundColor=none;strokeWidth=1;fontFamily=Verdana;fontSize=8;align=center;" vertex="1" parent="1">
          <mxGeometry x="87.5" y="110" width="100" height="40" as="geometry" />
        </mxCell>
        <mxCell id="JbQQHDA_vIymADXAR3bc-27" style="edgeStyle=orthogonalEdgeStyle;rounded=0;orthogonalLoop=1;jettySize=auto;html=1;exitX=0.5;exitY=1;exitDx=0;exitDy=0;exitPerimeter=0;entryX=1;entryY=0.5;entryDx=0;entryDy=0;dashed=1;startArrow=classic;startFill=1;" edge="1" parent="1" source="JbQQHDA_vIymADXAR3bc-10" target="JbQQHDA_vIymADXAR3bc-12">
          <mxGeometry relative="1" as="geometry" />
        </mxCell>
        <mxCell id="JbQQHDA_vIymADXAR3bc-10" value="Database" style="strokeWidth=1;html=1;shape=mxgraph.flowchart.database;whiteSpace=wrap;rounded=1;shadow=1;fontFamily=Verdana;fontSize=8;" vertex="1" parent="1">
          <mxGeometry x="247.5" y="100" width="60" height="60" as="geometry" />
        </mxCell>
        <mxCell id="JbQQHDA_vIymADXAR3bc-25" style="edgeStyle=orthogonalEdgeStyle;rounded=0;orthogonalLoop=1;jettySize=auto;html=1;exitX=0.5;exitY=1;exitDx=0;exitDy=0;entryX=0.5;entryY=0;entryDx=0;entryDy=0;" edge="1" parent="1" source="JbQQHDA_vIymADXAR3bc-12" target="JbQQHDA_vIymADXAR3bc-15">
          <mxGeometry relative="1" as="geometry" />
        </mxCell>
        <mxCell id="JbQQHDA_vIymADXAR3bc-12" value="get CC table" style="rounded=1;whiteSpace=wrap;html=1;shadow=1;labelBackgroundColor=none;strokeWidth=1;fontFamily=Verdana;fontSize=8;align=center;" vertex="1" parent="1">
          <mxGeometry x="87.5" y="200" width="100" height="40" as="geometry" />
        </mxCell>
        <mxCell id="JbQQHDA_vIymADXAR3bc-23" style="edgeStyle=orthogonalEdgeStyle;rounded=0;orthogonalLoop=1;jettySize=auto;html=1;exitX=0.5;exitY=1;exitDx=0;exitDy=0;entryX=0.5;entryY=0;entryDx=0;entryDy=0;" edge="1" parent="1" source="JbQQHDA_vIymADXAR3bc-15" target="JbQQHDA_vIymADXAR3bc-18">
          <mxGeometry relative="1" as="geometry" />
        </mxCell>
        <mxCell id="JbQQHDA_vIymADXAR3bc-15" value="&lt;div&gt;cc table &lt;br&gt;&lt;/div&gt;&lt;div&gt;DataFrame&lt;/div&gt;" style="shape=parallelogram;html=1;strokeWidth=1;perimeter=parallelogramPerimeter;whiteSpace=wrap;rounded=0;size=0.23;shadow=1;fontFamily=Verdana;fontSize=8;" vertex="1" parent="1">
          <mxGeometry x="87.5" y="290" width="100" height="40" as="geometry" />
        </mxCell>
        <mxCell id="JbQQHDA_vIymADXAR3bc-32" style="edgeStyle=orthogonalEdgeStyle;rounded=0;orthogonalLoop=1;jettySize=auto;html=1;exitX=1;exitY=0.5;exitDx=0;exitDy=0;entryX=0;entryY=0.5;entryDx=0;entryDy=0;dashed=1;startArrow=none;startFill=0;" edge="1" parent="1" source="JbQQHDA_vIymADXAR3bc-18" target="JbQQHDA_vIymADXAR3bc-31">
          <mxGeometry relative="1" as="geometry" />
        </mxCell>
        <mxCell id="JbQQHDA_vIymADXAR3bc-39" style="edgeStyle=orthogonalEdgeStyle;rounded=0;orthogonalLoop=1;jettySize=auto;html=1;exitX=0.5;exitY=1;exitDx=0;exitDy=0;startArrow=none;startFill=0;" edge="1" parent="1" source="JbQQHDA_vIymADXAR3bc-18" target="JbQQHDA_vIymADXAR3bc-38">
          <mxGeometry relative="1" as="geometry" />
        </mxCell>
        <mxCell id="JbQQHDA_vIymADXAR3bc-18" value="calculate mutual information" style="rounded=1;whiteSpace=wrap;html=1;shadow=1;labelBackgroundColor=none;strokeWidth=1;fontFamily=Verdana;fontSize=8;align=center;" vertex="1" parent="1">
          <mxGeometry x="87.5" y="370" width="100" height="40" as="geometry" />
        </mxCell>
        <mxCell id="JbQQHDA_vIymADXAR3bc-40" style="edgeStyle=orthogonalEdgeStyle;rounded=0;orthogonalLoop=1;jettySize=auto;html=1;exitX=0.5;exitY=1;exitDx=0;exitDy=0;startArrow=none;startFill=0;dashed=1;" edge="1" parent="1" source="JbQQHDA_vIymADXAR3bc-28" target="JbQQHDA_vIymADXAR3bc-37">
          <mxGeometry relative="1" as="geometry" />
        </mxCell>
        <mxCell id="JbQQHDA_vIymADXAR3bc-28" value="calculate mutual information numerical" style="rounded=1;whiteSpace=wrap;html=1;shadow=1;labelBackgroundColor=none;strokeWidth=1;fontFamily=Verdana;fontSize=8;align=center;" vertex="1" parent="1">
          <mxGeometry x="237.5" y="510" width="100" height="40" as="geometry" />
        </mxCell>
        <mxCell id="JbQQHDA_vIymADXAR3bc-36" style="edgeStyle=orthogonalEdgeStyle;rounded=0;orthogonalLoop=1;jettySize=auto;html=1;exitX=0.5;exitY=1;exitDx=0;exitDy=0;entryX=0.5;entryY=0;entryDx=0;entryDy=0;dashed=1;startArrow=none;startFill=0;" edge="1" parent="1" source="JbQQHDA_vIymADXAR3bc-54" target="JbQQHDA_vIymADXAR3bc-35">
          <mxGeometry relative="1" as="geometry" />
        </mxCell>
        <mxCell id="JbQQHDA_vIymADXAR3bc-47" style="edgeStyle=orthogonalEdgeStyle;rounded=0;orthogonalLoop=1;jettySize=auto;html=1;exitX=0.5;exitY=1;exitDx=0;exitDy=0;entryX=0.5;entryY=0;entryDx=0;entryDy=0;dashed=1;startArrow=none;startFill=0;" edge="1" parent="1" source="JbQQHDA_vIymADXAR3bc-31" target="JbQQHDA_vIymADXAR3bc-45">
          <mxGeometry relative="1" as="geometry" />
        </mxCell>
        <mxCell id="JbQQHDA_vIymADXAR3bc-49" value="no" style="edgeLabel;html=1;align=center;verticalAlign=middle;resizable=0;points=[];" vertex="1" connectable="0" parent="JbQQHDA_vIymADXAR3bc-47">
          <mxGeometry x="0.1642" y="2" relative="1" as="geometry">
            <mxPoint x="-2" y="-7" as="offset" />
          </mxGeometry>
        </mxCell>
        <mxCell id="JbQQHDA_vIymADXAR3bc-31" value="&lt;div&gt;categorical&lt;/div&gt;&lt;div&gt;features?&lt;br&gt;&lt;/div&gt;" style="rhombus;whiteSpace=wrap;html=1;rounded=0;shadow=1;labelBackgroundColor=none;strokeWidth=1;fontFamily=Verdana;fontSize=8;align=center;" vertex="1" parent="1">
          <mxGeometry x="237.5" y="360" width="100" height="60" as="geometry" />
        </mxCell>
        <mxCell id="JbQQHDA_vIymADXAR3bc-35" value="calculate mutual information categorical" style="rounded=1;whiteSpace=wrap;html=1;shadow=1;labelBackgroundColor=none;strokeWidth=1;fontFamily=Verdana;fontSize=8;align=center;" vertex="1" parent="1">
          <mxGeometry x="497.5" y="510" width="100" height="40" as="geometry" />
        </mxCell>
        <mxCell id="JbQQHDA_vIymADXAR3bc-41" style="edgeStyle=orthogonalEdgeStyle;rounded=0;orthogonalLoop=1;jettySize=auto;html=1;exitX=0;exitY=0.5;exitDx=0;exitDy=0;dashed=1;startArrow=none;startFill=0;" edge="1" parent="1" source="JbQQHDA_vIymADXAR3bc-37" target="JbQQHDA_vIymADXAR3bc-38">
          <mxGeometry relative="1" as="geometry" />
        </mxCell>
        <mxCell id="JbQQHDA_vIymADXAR3bc-37" value="&lt;div&gt;mutual &lt;br&gt;&lt;/div&gt;&lt;div&gt;information&lt;/div&gt;" style="shape=parallelogram;html=1;strokeWidth=1;perimeter=parallelogramPerimeter;whiteSpace=wrap;rounded=0;size=0.23;shadow=1;fontFamily=Verdana;fontSize=8;" vertex="1" parent="1">
          <mxGeometry x="237.5" y="610" width="100" height="40" as="geometry" />
        </mxCell>
        <mxCell id="JbQQHDA_vIymADXAR3bc-38" value="&lt;div&gt;invoke Node class with&lt;/div&gt;&lt;div&gt;properties from mutual inf&lt;br&gt;&lt;/div&gt;" style="rounded=1;whiteSpace=wrap;html=1;shadow=1;labelBackgroundColor=none;strokeWidth=1;fontFamily=Verdana;fontSize=8;align=center;" vertex="1" parent="1">
          <mxGeometry x="87.5" y="610" width="100" height="40" as="geometry" />
        </mxCell>
        <mxCell id="JbQQHDA_vIymADXAR3bc-42" value="calculate mutual information numerical" style="rounded=1;whiteSpace=wrap;html=1;shadow=1;labelBackgroundColor=none;strokeWidth=1;fontFamily=Verdana;fontSize=8;align=center;" vertex="1" parent="1">
          <mxGeometry x="367.5" y="510" width="100" height="40" as="geometry" />
        </mxCell>
        <mxCell id="JbQQHDA_vIymADXAR3bc-48" style="edgeStyle=orthogonalEdgeStyle;rounded=0;orthogonalLoop=1;jettySize=auto;html=1;exitX=0.5;exitY=1;exitDx=0;exitDy=0;entryX=0.5;entryY=0;entryDx=0;entryDy=0;dashed=1;startArrow=none;startFill=0;" edge="1" parent="1" source="JbQQHDA_vIymADXAR3bc-45" target="JbQQHDA_vIymADXAR3bc-28">
          <mxGeometry relative="1" as="geometry" />
        </mxCell>
        <mxCell id="JbQQHDA_vIymADXAR3bc-45" value="&lt;div&gt;cc table&lt;/div&gt;&lt;div&gt;DataFrame&lt;br&gt;&lt;/div&gt;" style="shape=parallelogram;html=1;strokeWidth=1;perimeter=parallelogramPerimeter;whiteSpace=wrap;rounded=0;size=0.23;shadow=1;fontFamily=Verdana;fontSize=8;" vertex="1" parent="1">
          <mxGeometry x="237.5" y="450" width="100" height="40" as="geometry" />
        </mxCell>
        <mxCell id="JbQQHDA_vIymADXAR3bc-56" style="edgeStyle=orthogonalEdgeStyle;rounded=0;orthogonalLoop=1;jettySize=auto;html=1;exitX=0.5;exitY=1;exitDx=0;exitDy=0;entryX=0.5;entryY=0;entryDx=0;entryDy=0;dashed=1;startArrow=none;startFill=0;" edge="1" parent="1" source="JbQQHDA_vIymADXAR3bc-50" target="JbQQHDA_vIymADXAR3bc-42">
          <mxGeometry relative="1" as="geometry" />
        </mxCell>
        <mxCell id="JbQQHDA_vIymADXAR3bc-50" value="&lt;div&gt;cc table&lt;/div&gt;&lt;div&gt;DataFrame&lt;/div&gt;&lt;div&gt;numerical&lt;br&gt;&lt;/div&gt;" style="shape=parallelogram;html=1;strokeWidth=1;perimeter=parallelogramPerimeter;whiteSpace=wrap;rounded=0;size=0.23;shadow=1;fontFamily=Verdana;fontSize=8;" vertex="1" parent="1">
          <mxGeometry x="367.5" y="450" width="100" height="40" as="geometry" />
        </mxCell>
        <mxCell id="JbQQHDA_vIymADXAR3bc-52" value="" style="edgeStyle=orthogonalEdgeStyle;rounded=0;orthogonalLoop=1;jettySize=auto;html=1;exitX=1;exitY=0.5;exitDx=0;exitDy=0;entryX=0.5;entryY=0;entryDx=0;entryDy=0;dashed=1;startArrow=none;startFill=0;endArrow=none;" edge="1" parent="1" source="JbQQHDA_vIymADXAR3bc-31" target="JbQQHDA_vIymADXAR3bc-50">
          <mxGeometry relative="1" as="geometry">
            <mxPoint x="337.5" y="390" as="sourcePoint" />
            <mxPoint x="417.5" y="510" as="targetPoint" />
          </mxGeometry>
        </mxCell>
        <mxCell id="JbQQHDA_vIymADXAR3bc-53" value="yes" style="edgeLabel;html=1;align=center;verticalAlign=middle;resizable=0;points=[];" vertex="1" connectable="0" parent="JbQQHDA_vIymADXAR3bc-52">
          <mxGeometry x="-0.74" y="1" relative="1" as="geometry">
            <mxPoint as="offset" />
          </mxGeometry>
        </mxCell>
        <mxCell id="JbQQHDA_vIymADXAR3bc-54" value="&lt;div&gt;cc table&lt;/div&gt;&lt;div&gt;DataFrame&lt;/div&gt;&lt;div&gt;categorical&lt;br&gt;&lt;/div&gt;" style="shape=parallelogram;html=1;strokeWidth=1;perimeter=parallelogramPerimeter;whiteSpace=wrap;rounded=0;size=0.23;shadow=1;fontFamily=Verdana;fontSize=8;" vertex="1" parent="1">
          <mxGeometry x="497.5" y="450" width="100" height="40" as="geometry" />
        </mxCell>
        <mxCell id="JbQQHDA_vIymADXAR3bc-55" value="" style="edgeStyle=orthogonalEdgeStyle;rounded=0;orthogonalLoop=1;jettySize=auto;html=1;exitX=1;exitY=0.5;exitDx=0;exitDy=0;entryX=0.5;entryY=0;entryDx=0;entryDy=0;dashed=1;startArrow=none;startFill=0;endArrow=none;" edge="1" parent="1" source="JbQQHDA_vIymADXAR3bc-31" target="JbQQHDA_vIymADXAR3bc-54">
          <mxGeometry relative="1" as="geometry">
            <mxPoint x="337.5" y="390" as="sourcePoint" />
            <mxPoint x="547.5" y="510" as="targetPoint" />
          </mxGeometry>
        </mxCell>
        <mxCell id="JbQQHDA_vIymADXAR3bc-61" style="edgeStyle=orthogonalEdgeStyle;rounded=0;orthogonalLoop=1;jettySize=auto;html=1;exitX=1;exitY=0.5;exitDx=0;exitDy=0;startArrow=none;startFill=0;" edge="1" parent="1" source="JbQQHDA_vIymADXAR3bc-59" target="JbQQHDA_vIymADXAR3bc-60">
          <mxGeometry relative="1" as="geometry" />
        </mxCell>
        <mxCell id="JbQQHDA_vIymADXAR3bc-62" value="yes" style="edgeLabel;html=1;align=center;verticalAlign=middle;resizable=0;points=[];" vertex="1" connectable="0" parent="JbQQHDA_vIymADXAR3bc-61">
          <mxGeometry x="-0.6742" y="-1" relative="1" as="geometry">
            <mxPoint x="10" y="-1" as="offset" />
          </mxGeometry>
        </mxCell>
        <mxCell id="JbQQHDA_vIymADXAR3bc-70" style="edgeStyle=orthogonalEdgeStyle;rounded=0;orthogonalLoop=1;jettySize=auto;html=1;exitX=0.5;exitY=1;exitDx=0;exitDy=0;entryX=0.5;entryY=0;entryDx=0;entryDy=0;startArrow=none;startFill=0;" edge="1" parent="1" source="JbQQHDA_vIymADXAR3bc-59" target="JbQQHDA_vIymADXAR3bc-68">
          <mxGeometry relative="1" as="geometry" />
        </mxCell>
        <mxCell id="JbQQHDA_vIymADXAR3bc-59" value="&lt;div&gt;termination &lt;br&gt;&lt;/div&gt;&lt;div&gt;criteria met?&lt;br&gt;&lt;/div&gt;" style="rhombus;whiteSpace=wrap;html=1;rounded=0;shadow=1;labelBackgroundColor=none;strokeWidth=1;fontFamily=Verdana;fontSize=8;align=center;" vertex="1" parent="1">
          <mxGeometry x="87.5" y="690" width="100" height="60" as="geometry" />
        </mxCell>
        <mxCell id="JbQQHDA_vIymADXAR3bc-60" value="return node" style="strokeWidth=1;html=1;shape=mxgraph.flowchart.terminator;whiteSpace=wrap;rounded=1;shadow=1;fontFamily=Verdana;fontSize=8;" vertex="1" parent="1">
          <mxGeometry x="247.5" y="700" width="66.67" height="40" as="geometry" />
        </mxCell>
        <mxCell id="JbQQHDA_vIymADXAR3bc-65" style="edgeStyle=orthogonalEdgeStyle;rounded=0;orthogonalLoop=1;jettySize=auto;html=1;exitX=0.5;exitY=1;exitDx=0;exitDy=0;entryX=0.5;entryY=0;entryDx=0;entryDy=0;startArrow=none;startFill=0;" edge="1" parent="1" source="JbQQHDA_vIymADXAR3bc-38" target="JbQQHDA_vIymADXAR3bc-59">
          <mxGeometry relative="1" as="geometry">
            <mxPoint x="137.5" y="730" as="sourcePoint" />
          </mxGeometry>
        </mxCell>
        <mxCell id="JbQQHDA_vIymADXAR3bc-72" style="edgeStyle=orthogonalEdgeStyle;rounded=0;orthogonalLoop=1;jettySize=auto;html=1;exitX=1;exitY=0.5;exitDx=0;exitDy=0;entryX=0;entryY=0.5;entryDx=0;entryDy=0;startArrow=none;startFill=0;" edge="1" parent="1" source="JbQQHDA_vIymADXAR3bc-68" target="JbQQHDA_vIymADXAR3bc-71">
          <mxGeometry relative="1" as="geometry" />
        </mxCell>
        <mxCell id="JbQQHDA_vIymADXAR3bc-73" value="no" style="edgeLabel;html=1;align=center;verticalAlign=middle;resizable=0;points=[];" vertex="1" connectable="0" parent="JbQQHDA_vIymADXAR3bc-72">
          <mxGeometry x="-0.2978" relative="1" as="geometry">
            <mxPoint as="offset" />
          </mxGeometry>
        </mxCell>
        <mxCell id="JbQQHDA_vIymADXAR3bc-75" style="edgeStyle=orthogonalEdgeStyle;rounded=0;orthogonalLoop=1;jettySize=auto;html=1;exitX=0.5;exitY=1;exitDx=0;exitDy=0;entryX=0.5;entryY=0;entryDx=0;entryDy=0;entryPerimeter=0;startArrow=none;startFill=0;" edge="1" parent="1" source="JbQQHDA_vIymADXAR3bc-68" target="JbQQHDA_vIymADXAR3bc-74">
          <mxGeometry relative="1" as="geometry" />
        </mxCell>
        <mxCell id="JbQQHDA_vIymADXAR3bc-76" value="yes" style="edgeLabel;html=1;align=center;verticalAlign=middle;resizable=0;points=[];" vertex="1" connectable="0" parent="JbQQHDA_vIymADXAR3bc-75">
          <mxGeometry x="0.2942" y="-1" relative="1" as="geometry">
            <mxPoint x="1" y="-16" as="offset" />
          </mxGeometry>
        </mxCell>
        <mxCell id="JbQQHDA_vIymADXAR3bc-68" value="&lt;div&gt;feature already &lt;br&gt;&lt;/div&gt;&lt;div&gt;in use as index?&lt;br&gt;&lt;/div&gt;" style="rhombus;whiteSpace=wrap;html=1;rounded=0;shadow=1;labelBackgroundColor=none;strokeWidth=1;fontFamily=Verdana;fontSize=8;align=center;" vertex="1" parent="1">
          <mxGeometry x="87.5" y="780" width="100" height="60" as="geometry" />
        </mxCell>
        <mxCell id="JbQQHDA_vIymADXAR3bc-77" style="edgeStyle=orthogonalEdgeStyle;rounded=0;orthogonalLoop=1;jettySize=auto;html=1;exitX=0.5;exitY=1;exitDx=0;exitDy=0;entryX=1;entryY=0.5;entryDx=0;entryDy=0;entryPerimeter=0;startArrow=none;startFill=0;" edge="1" parent="1" source="JbQQHDA_vIymADXAR3bc-71" target="JbQQHDA_vIymADXAR3bc-74">
          <mxGeometry relative="1" as="geometry" />
        </mxCell>
        <mxCell id="JbQQHDA_vIymADXAR3bc-71" value="create index with feature appended to last entry in dictionary" style="rounded=1;whiteSpace=wrap;html=1;shadow=1;labelBackgroundColor=none;strokeWidth=1;fontFamily=Verdana;fontSize=8;align=center;" vertex="1" parent="1">
          <mxGeometry x="237.5" y="790" width="100" height="40" as="geometry" />
        </mxCell>
        <mxCell id="JbQQHDA_vIymADXAR3bc-79" style="edgeStyle=orthogonalEdgeStyle;rounded=0;orthogonalLoop=1;jettySize=auto;html=1;exitX=0.5;exitY=1;exitDx=0;exitDy=0;exitPerimeter=0;startArrow=none;startFill=0;entryX=0.5;entryY=0;entryDx=0;entryDy=0;" edge="1" parent="1" source="JbQQHDA_vIymADXAR3bc-74" target="JbQQHDA_vIymADXAR3bc-81">
          <mxGeometry relative="1" as="geometry">
            <mxPoint x="137.5" y="949.9999999999998" as="targetPoint" />
          </mxGeometry>
        </mxCell>
        <mxCell id="JbQQHDA_vIymADXAR3bc-74" value="" style="strokeWidth=1;html=1;shape=mxgraph.flowchart.decision;whiteSpace=wrap;rounded=0;shadow=1;fontFamily=Verdana;fontSize=8;" vertex="1" parent="1">
          <mxGeometry x="122.5" y="880" width="30" height="30" as="geometry" />
        </mxCell>
        <mxCell id="JbQQHDA_vIymADXAR3bc-87" style="edgeStyle=orthogonalEdgeStyle;rounded=0;orthogonalLoop=1;jettySize=auto;html=1;exitX=0.5;exitY=1;exitDx=0;exitDy=0;entryX=0.5;entryY=0;entryDx=0;entryDy=0;entryPerimeter=0;startArrow=none;startFill=0;" edge="1" parent="1" source="JbQQHDA_vIymADXAR3bc-81" target="JbQQHDA_vIymADXAR3bc-86">
          <mxGeometry relative="1" as="geometry" />
        </mxCell>
        <mxCell id="JbQQHDA_vIymADXAR3bc-81" value="concatenate query string with feature and threshold" style="rounded=1;whiteSpace=wrap;html=1;shadow=1;labelBackgroundColor=none;strokeWidth=1;fontFamily=Verdana;fontSize=8;align=center;" vertex="1" parent="1">
          <mxGeometry x="87.5" y="960" width="100" height="40" as="geometry" />
        </mxCell>
        <mxCell id="JbQQHDA_vIymADXAR3bc-82" value="query= query + &quot;{feature} {operator} {threshold}&quot;" style="strokeWidth=2;html=1;shape=mxgraph.flowchart.annotation_2;align=left;labelPosition=right;pointerEvents=1;" vertex="1" parent="1">
          <mxGeometry x="187.5" y="970" width="50" height="20" as="geometry" />
        </mxCell>
        <mxCell id="JbQQHDA_vIymADXAR3bc-95" style="edgeStyle=orthogonalEdgeStyle;rounded=0;orthogonalLoop=1;jettySize=auto;html=1;exitX=0.5;exitY=1;exitDx=0;exitDy=0;entryX=0;entryY=0.5;entryDx=0;entryDy=0;startArrow=none;startFill=0;" edge="1" parent="1" source="JbQQHDA_vIymADXAR3bc-84" target="JbQQHDA_vIymADXAR3bc-2">
          <mxGeometry relative="1" as="geometry">
            <Array as="points">
              <mxPoint x="195" y="1180" />
              <mxPoint x="10" y="1180" />
              <mxPoint x="10" y="35" />
            </Array>
          </mxGeometry>
        </mxCell>
        <mxCell id="JbQQHDA_vIymADXAR3bc-84" value="invoke node right" style="rounded=1;whiteSpace=wrap;html=1;shadow=1;labelBackgroundColor=none;strokeWidth=1;fontFamily=Verdana;fontSize=8;align=center;" vertex="1" parent="1">
          <mxGeometry x="145" y="1120" width="100" height="40" as="geometry" />
        </mxCell>
        <mxCell id="JbQQHDA_vIymADXAR3bc-88" style="edgeStyle=orthogonalEdgeStyle;rounded=0;orthogonalLoop=1;jettySize=auto;html=1;exitX=0.5;exitY=1;exitDx=0;exitDy=0;exitPerimeter=0;entryX=0.5;entryY=0;entryDx=0;entryDy=0;startArrow=none;startFill=0;" edge="1" parent="1" source="JbQQHDA_vIymADXAR3bc-86" target="JbQQHDA_vIymADXAR3bc-84">
          <mxGeometry relative="1" as="geometry" />
        </mxCell>
        <mxCell id="JbQQHDA_vIymADXAR3bc-90" style="edgeStyle=orthogonalEdgeStyle;rounded=0;orthogonalLoop=1;jettySize=auto;html=1;exitX=0.5;exitY=1;exitDx=0;exitDy=0;exitPerimeter=0;entryX=0.5;entryY=0;entryDx=0;entryDy=0;startArrow=none;startFill=0;" edge="1" parent="1" source="JbQQHDA_vIymADXAR3bc-86" target="JbQQHDA_vIymADXAR3bc-89">
          <mxGeometry relative="1" as="geometry" />
        </mxCell>
        <mxCell id="JbQQHDA_vIymADXAR3bc-86" value="" style="verticalLabelPosition=bottom;verticalAlign=top;html=1;shape=mxgraph.flowchart.parallel_mode;pointerEvents=1" vertex="1" parent="1">
          <mxGeometry x="90" y="1030" width="95" height="40" as="geometry" />
        </mxCell>
        <mxCell id="JbQQHDA_vIymADXAR3bc-94" style="edgeStyle=orthogonalEdgeStyle;rounded=0;orthogonalLoop=1;jettySize=auto;html=1;exitX=0;exitY=0.5;exitDx=0;exitDy=0;entryX=0;entryY=0.5;entryDx=0;entryDy=0;startArrow=none;startFill=0;" edge="1" parent="1" source="JbQQHDA_vIymADXAR3bc-89" target="JbQQHDA_vIymADXAR3bc-2">
          <mxGeometry relative="1" as="geometry">
            <Array as="points">
              <mxPoint x="10" y="1140" />
              <mxPoint x="10" y="35" />
            </Array>
          </mxGeometry>
        </mxCell>
        <mxCell id="JbQQHDA_vIymADXAR3bc-89" value="invoke node left" style="rounded=1;whiteSpace=wrap;html=1;shadow=1;labelBackgroundColor=none;strokeWidth=1;fontFamily=Verdana;fontSize=8;align=center;" vertex="1" parent="1">
          <mxGeometry x="30" y="1120" width="100" height="40" as="geometry" />
        </mxCell>
        <mxCell id="JbQQHDA_vIymADXAR3bc-91" value="node.left =grow_tree(query)" style="strokeWidth=2;html=1;shape=mxgraph.flowchart.annotation_2;align=left;labelPosition=right;pointerEvents=1;" vertex="1" parent="1">
          <mxGeometry x="247.5" y="1130" width="50" height="20" as="geometry" />
        </mxCell>
      </root>
    </mxGraphModel>
  </diagram>
</mxfile>
